<svg id="Capa_1" enable-background="new 0 0 512 512" height="512" viewBox="0 0 512 512" width="512" xmlns="http://www.w3.org/2000/svg"><path d="m120 251.549 103.857 123.722-102.583 75.967-111.547-89.238z" fill="#6b77e8"/><path d="m5.77 358.537c-3.434-2.748-5.77-6.793-5.77-11.537v-90c0-8.291 6.709-15 15-15h90c4.62 0 8.593 2.201 11.343 5.48l3.657 4.069v95.451c0 8.284-6.716 15-15 15h-95.273z" fill="#979fef"/><path d="m392 251.549-104.857 123.722 103.583 75.967 111.547-89.238z" fill="#615ad3"/><path d="m506.23 358.537c3.433-2.748 5.77-6.793 5.77-11.537v-90c0-8.291-6.709-15-15-15h-90c-4.62 0-8.593 2.201-11.343 5.48l-3.657 4.069v95.451c0 8.284 6.716 15 15 15h95.273z" fill="#6b77e8"/><path d="m361.399 107.699-50.099 278.901h-110.6l-50.099-278.901c-.601-2.399-.3-4.799.3-7.2h210.198c.601 2.401.901 4.801.3 7.2z" fill="#979fef"/><path d="m311.3 386.6h-55.3v-286.101h105.099c.601 2.401.901 4.801.3 7.2z" fill="#6b77e8"/><path d="m450.2 493.999h-388.4c8.101-39.6 41.7-68.699 81.301-71.699 25.199-37.5 68.199-60.3 112.899-60.3 45 0 88.001 23.099 112.899 60.599 40.502 3.601 73.501 32.4 81.301 71.4z" fill="#fdbf00"/><g fill="#76e2f8"><path d="m497 120h-15v-15c0-8.291-6.709-15-15-15s-15 6.709-15 15v15h-15c-8.291 0-15 6.709-15 15s6.709 15 15 15h15v15c0 8.291 6.709 15 15 15s15-6.709 15-15v-15h15c8.291 0 15-6.709 15-15s-6.709-15-15-15z"/><circle cx="407" cy="75" r="15"/><circle cx="467" cy="15" r="15"/></g><path d="m75 30h-15v-15c0-8.291-6.709-15-15-15s-15 6.709-15 15v15h-15c-8.291 0-15 6.709-15 15s6.709 15 15 15h15v15c0 8.291 6.709 15 15 15s15-6.709 15-15v-15h15c8.291 0 15-6.709 15-15s-6.709-15-15-15z" fill="#a8ebfa"/><circle cx="105" cy="105" fill="#a8ebfa" r="15"/><circle cx="45" cy="165" fill="#a8ebfa" r="15"/><path d="m450.2 493.999h-194.2v-131.999c45 0 88.001 23.099 112.899 60.599 40.502 3.601 73.501 32.4 81.301 71.4z" fill="#ff9100"/><path d="m361.099 100.499-94.6 105c-2.699 3.001-6.599 5.501-10.499 5.501s-7.8-2.5-10.499-5.501l-94.6-105c.599-2.1 1.8-4.2 3.6-6l91-90c2.699-2.999 6.599-4.499 10.499-4.499s7.8 1.5 10.499 4.499l91 90c1.8 1.8 3.001 3.9 3.6 6z" fill="#b9b6ec"/><path d="m266.499 205.499c-2.699 3.001-6.599 5.501-10.499 5.501v-211c3.9 0 7.8 1.5 10.499 4.499l91 90c1.8 1.8 3.001 3.9 3.6 6z" fill="#979fef"/><path d="m482 497c0 8.399-6.599 15-15 15h-422c-8.401 0-15-6.601-15-15 0-8.401 6.599-15 15-15h422c8.401 0 15 6.599 15 15z" fill="#ffda2d"/><path d="m482 497c0 8.399-6.599 15-15 15h-211v-30h211c8.401 0 15 6.599 15 15z" fill="#fdbf00"/></svg>