<?xml version="1.0"?>
<svg xmlns="http://www.w3.org/2000/svg" xmlns:xlink="http://www.w3.org/1999/xlink" version="1.1" id="Capa_1" x="0px" y="0px" viewBox="0 0 511.999 511.999" style="enable-background:new 0 0 511.999 511.999;" xml:space="preserve" width="512px" height="512px" class=""><g><link xmlns="" type="text/css" id="dark-mode" rel="stylesheet" class="active-path" style="fill:#720F0F" data-old_color="#D41C1C"/><style xmlns="" type="text/css" id="dark-mode-custom-style" class="active-path" style="fill:#720F0F" data-old_color="#D41C1C"/><g>
	<g>
		<path d="M421.666,102.875c-10.986,0-19.925,8.938-19.925,19.925s8.938,19.924,19.925,19.924c10.986,0,19.925-8.938,19.925-19.924    C441.591,111.814,432.652,102.875,421.666,102.875z M421.666,127.723c-2.716,0-4.925-2.209-4.925-4.924    c0-2.716,2.209-4.925,4.925-4.925s4.925,2.209,4.925,4.925C426.591,125.514,424.382,127.723,421.666,127.723z" data-original="#000000" class="active-path" data-old_color="#D41C1C" fill="#E45454"/>
	</g>
</g><g>
	<g>
		<path d="M505.971,66.412L340.347,33.285c-0.002,0-0.005-0.001-0.007-0.001l-0.036-0.007c-0.021-0.004-0.043-0.004-0.064-0.008    c-0.283-0.054-0.573-0.088-0.866-0.109c-0.102-0.007-0.202-0.012-0.303-0.015c-0.08-0.003-0.157-0.012-0.238-0.012    c-0.182,0-0.36,0.014-0.539,0.027c-0.062,0.005-0.124,0.003-0.185,0.009c-0.322,0.031-0.636,0.086-0.944,0.156    c-0.069,0.016-0.137,0.035-0.206,0.053c-0.278,0.071-0.549,0.157-0.814,0.259c-0.032,0.012-0.065,0.018-0.097,0.031L172.45,99.108    L88.639,82.345c-4.062-0.814-8.013,1.822-8.825,5.884c-0.813,4.061,1.822,8.013,5.884,8.825l79.969,15.994v116.568l-67.195-13.439    c-0.051-0.01-0.101-0.013-0.151-0.022c-2.617-0.522-5.302-0.791-7.988-0.791c-22.405,0-40.633,18.229-40.633,40.634    c0,19.356,13.757,36.112,32.717,39.86c0.007,0.001,0.014,0.004,0.021,0.005l83.229,16.647v56.084l-43.551-8.71l6.657-6.657    c2.929-2.93,2.929-7.678,0-10.607c-2.93-2.928-7.678-2.928-10.607,0L106.9,353.882l-11.263-11.263    c-2.93-2.928-7.678-2.928-10.607,0c-2.929,2.93-2.929,7.678,0,10.607l11.264,11.264L85.03,375.754    c-2.929,2.93-2.929,7.678,0,10.607c1.465,1.464,3.385,2.196,5.304,2.196s3.839-0.732,5.304-2.196l11.264-11.264l11.264,11.264    c1.465,1.464,3.385,2.196,5.304,2.196c1.919,0,3.839-0.732,5.304-2.196c2.643-2.644,2.892-6.764,0.766-9.696l36.129,7.226v78.326    L15,432.082V82.914l40.729,8.146c4.062,0.816,8.013-1.822,8.825-5.884c0.813-4.062-1.822-8.013-5.884-8.825L8.971,66.412    c-2.202-0.439-4.487,0.13-6.226,1.555C1.008,69.39,0,71.519,0,73.766v364.465c0,3.575,2.523,6.653,6.029,7.354l165.601,33.122    c0.017,0.004,0.035,0.007,0.052,0.01l0.012,0.003c0.056,0.011,0.112,0.015,0.168,0.025c0.184,0.032,0.367,0.064,0.555,0.083    c0.249,0.025,0.499,0.038,0.748,0.038c0.245,0,0.489-0.013,0.732-0.037c0.128-0.013,0.253-0.036,0.379-0.054    c0.112-0.017,0.224-0.029,0.335-0.051c0.151-0.03,0.298-0.069,0.446-0.108c0.084-0.022,0.169-0.04,0.253-0.065    c0.151-0.045,0.298-0.099,0.445-0.154c0.064-0.024,0.131-0.042,0.195-0.067l0.119-0.047c0.007-0.003,0.015-0.006,0.022-0.009    l163.456-65.384l163.481,32.696c2.2,0.44,4.487-0.129,6.226-1.555c1.737-1.424,2.745-3.553,2.745-5.8V73.766    C512,70.191,509.477,67.113,505.971,66.412z M165.665,297.212l-80.288-16.058c-0.003-0.001-0.006-0.001-0.009-0.001    c-0.005-0.001-0.009-0.002-0.014-0.003c-11.968-2.353-20.655-12.93-20.655-25.152c0-14.135,11.499-25.634,25.633-25.634    c1.736,0,3.47,0.174,5.152,0.518c0.029,0.006,0.058,0.008,0.087,0.013l70.094,14.019V297.212z M180.666,311.439L180.666,311.439    l82.247-32.899c0.009-0.003,0.016-0.008,0.025-0.011c3.055-1.239,6.294-1.868,9.628-1.868c14.135,0,25.634,11.499,25.634,25.634    c0,10.592-6.363,19.952-16.211,23.849c-0.007,0.003-0.012,0.006-0.019,0.009c-0.012,0.005-0.023,0.007-0.035,0.012    l-101.269,40.509V311.439z M331.332,400.021l-150.666,60.268v-77.461h0l106.839-42.737c0.005-0.002,0.009-0.004,0.013-0.006    c15.601-6.177,25.681-21.009,25.681-37.791c0-22.405-18.228-40.634-40.634-40.634c-5.253,0-10.368,0.991-15.203,2.945    c-0.007,0.002-0.013,0.004-0.019,0.007l-0.032,0.013c-0.006,0.002-0.012,0.004-0.018,0.007c-0.002,0.001-0.004,0.002-0.006,0.003    l-76.621,30.649v-51.437l150.666-60.268V400.021z M331.332,167.422L180.666,227.69V111.978L331.332,51.71V167.422z M497,429.082    l-150.668-30.134v-217.3l73.865,14.774c0.104,0.021,0.207,0.03,0.311,0.046c0.09,0.014,0.178,0.029,0.269,0.04    c0.301,0.036,0.601,0.06,0.898,0.06c0.304,0,0.604-0.025,0.901-0.061c0.054-0.007,0.108-0.014,0.162-0.021    c0.3-0.043,0.596-0.1,0.885-0.178c0.283-0.077,0.558-0.174,0.829-0.283c0.056-0.022,0.111-0.044,0.166-0.067    c0.266-0.114,0.526-0.24,0.776-0.383c0.028-0.016,0.055-0.035,0.083-0.052c0.228-0.135,0.447-0.282,0.659-0.44    c0.047-0.035,0.094-0.068,0.14-0.104c0.23-0.179,0.45-0.37,0.658-0.575c0.025-0.024,0.048-0.05,0.072-0.075    c0.198-0.201,0.385-0.413,0.56-0.636c0.02-0.025,0.04-0.049,0.059-0.074c0.188-0.245,0.36-0.503,0.518-0.773    c0.006-0.01,0.013-0.018,0.019-0.028l28.342-49.094c3.792-6.305,5.797-13.537,5.797-20.923c0-22.405-18.229-40.634-40.634-40.634    c-22.405,0-40.633,18.229-40.633,40.634c0,7.385,2.004,14.618,5.796,20.923l20.054,34.738l-60.552-12.111V49.78L497,79.914    V429.082z M399.785,136.162c-0.024-0.043-0.05-0.086-0.075-0.128c-2.405-3.98-3.676-8.557-3.676-13.233    c0-14.135,11.499-25.634,25.633-25.634c14.135,0,25.634,11.499,25.634,25.634c0,4.678-1.272,9.253-3.676,13.232    c-0.026,0.043-0.052,0.086-0.076,0.129l-21.882,37.904L399.785,136.162z" data-original="#000000" class="active-path" data-old_color="#D41C1C" fill="#E45454"/>
	</g>
</g><g>
	<g>
		<path d="M420.547,333.325l-24.851-79.562c-0.962-3.078-3.784-5.197-7.009-5.262c-0.051-0.002-0.101-0.002-0.151-0.002    c-3.164,0-5.995,1.989-7.063,4.979l-24.85,69.621c-0.732,2.053-0.536,4.321,0.537,6.218c1.074,1.896,2.919,3.23,5.056,3.658    l18.605,3.721v26.987c0,4.142,3.357,7.5,7.5,7.5s7.5-3.358,7.5-7.5v-23.987l16.096,3.219c0.489,0.098,0.982,0.146,1.471,0.146    c2.104,0,4.138-0.886,5.575-2.483C420.735,338.609,421.336,335.853,420.547,333.325z M389.866,323.208    c-0.024-0.005-0.048-0.01-0.073-0.015l-16.125-3.225l14.396-40.33l14.396,46.089L389.866,323.208z" data-original="#000000" class="active-path" data-old_color="#D41C1C" fill="#E45454"/>
	</g>
</g><g>
	<g>
		<path d="M486.809,283.624l-24.851-79.562c-0.961-3.078-3.783-5.197-7.008-5.262c-3.226-0.095-6.129,1.939-7.214,4.977    l-24.852,69.621c-0.732,2.052-0.536,4.321,0.537,6.217c1.074,1.897,2.919,3.232,5.056,3.659l18.605,3.721v26.987    c0,4.143,3.357,7.5,7.5,7.5s7.5-3.357,7.5-7.5v-23.987l16.097,3.219c0.489,0.098,0.982,0.146,1.471,0.146    c2.104,0,4.138-0.886,5.575-2.483C486.997,288.908,487.598,286.152,486.809,283.624z M456.126,273.507    c-0.023-0.005-0.046-0.009-0.068-0.014l-16.128-3.226l14.396-40.331l14.397,46.09L456.126,273.507z" data-original="#000000" class="active-path" data-old_color="#D41C1C" fill="#E45454"/>
	</g>
</g></g> </svg>
