<?xml version="1.0" encoding="iso-8859-1"?>
<!-- Generator: Adobe Illustrator 19.0.0, SVG Export Plug-In . SVG Version: 6.00 Build 0)  -->
<svg version="1.1" id="Capa_1" xmlns="http://www.w3.org/2000/svg" xmlns:xlink="http://www.w3.org/1999/xlink" x="0px" y="0px"
	 viewBox="0 0 468.293 468.293" style="enable-background:new 0 0 468.293 468.293;" xml:space="preserve">
<g>
	<rect x="261.307" y="74.69" style="fill:#64798A;" width="26.455" height="75.364"/>
	<rect x="182.796" y="74.69" style="fill:#64798A;" width="26.455" height="75.364"/>
</g>
<path style="fill:#2F4859;" d="M345.793,393.345l19.923-38.718l24.072-47.169c7.275-14.231,7.275-31.987,0-46.219L331.99,148.336
	c-6.745-13.011-18.516-21.008-31.478-21.008H180.947c-12.829,0-24.601,7.996-31.346,21.008L91.802,261.24
	c-7.274,14.232-7.274,31.989,0,46.219l24.072,47.169l19.868,38.718H345.793z"/>
<path style="fill:#64798A;" d="M170.443,373.254c4.79,9.247,12.537,16.234,21.667,20.091h97.373
	c9.13-3.857,16.878-10.844,21.667-20.091l35.323-68.196c6.708-12.95,6.708-28.468,0-41.416l-35.323-68.196
	c-7.477-14.437-22.122-23.461-38.071-23.461h-64.566c-15.948,0-30.594,9.024-38.071,23.461l-35.323,68.196
	c-6.708,12.948-6.708,28.466,0,41.416L170.443,373.254z"/>
<path style="fill:#3A556A;" d="M395.628,324.181h-14.219c-9.406,0-17.92,5.567-21.692,14.183l-10.808,24.686
	c-3.874,8.849-13.722,13.623-22.976,10.853c-27.069-8.102-58.437-12.741-91.815-12.741c-30.616,0-59.488,3.926-84.924,10.828
	c-9.299,2.523-19.03-1.975-22.917-10.791l-10.094-22.892c-3.786-8.586-12.284-14.126-21.667-14.126H72.652
	c-15.463,0-27.942,14.75-25.556,30.309l11.594,72.873c-0.004,0.006-0.009,0.012-0.014,0.019l3.208,20.261
	c1.916,12.096,11.471,20.649,23.142,20.649h298.182c1.46,0,2.888-0.134,4.274-0.393c9.737-1.806,17.298-9.687,18.969-20.224
	l3.201-20.29l11.532-72.896C423.634,338.931,411.09,324.181,395.628,324.181z"/>
<g>
	<path style="fill:#2F4859;" d="M235.467,446.679c-35.636,0-71.323-3.971-106.824-11.899c-2.674-0.596-4.372-3.309-3.784-6.049
		c0.581-2.727,3.171-4.474,5.903-3.878c69.58,15.539,139.928,15.526,209.081,0c2.654-0.596,5.315,1.125,5.909,3.878
		c0.588,2.74-1.104,5.453-3.778,6.049C306.694,442.708,271.103,446.679,235.467,446.679z"/>
	<path style="fill:#2F4859;" d="M278.136,0h-85.695c-19.545,0-35.39,16.238-35.39,36.267v47.475c0,6.774,5.359,12.265,11.968,12.265
		h132.537c6.611,0,11.969-5.491,11.969-12.265V36.267C313.527,16.238,297.682,0,278.136,0z"/>
</g>
<g>
</g>
<g>
</g>
<g>
</g>
<g>
</g>
<g>
</g>
<g>
</g>
<g>
</g>
<g>
</g>
<g>
</g>
<g>
</g>
<g>
</g>
<g>
</g>
<g>
</g>
<g>
</g>
<g>
</g>
</svg>
